<svg xmlns="http://www.w3.org/2000/svg" viewBox="0 0 1192 954"><defs><style>.cls-1{fill:#ff0;}.cls-2{fill:none;stroke:#000;stroke-miterlimit:10;stroke-width:5px;}</style></defs><title>map1</title><g id="Outline"><path class="cls-1" d="M636.15,182.47,820.52,48a46.43,46.43,0,0,1,24-8.79L1095.1,21.15a46.44,46.44,0,0,1,45.08,26l39.51,81a46.42,46.42,0,0,1-14.19,57.75L983.15,320.17a46.5,46.5,0,0,1-24.22,8.93L706.62,347.2a46.44,46.44,0,0,1-45-25.82l-39.78-80.89A46.45,46.45,0,0,1,636.15,182.47Z"/><path class="cls-2" d="M1177.86,128l-39.51-81a46.41,46.41,0,0,0-45.08-25.95L842.71,39.2a46.53,46.53,0,0,0-24,8.8L634.33,182.44a46.43,46.43,0,0,0-14.31,58l2.74,5.57L377.61,387.56,343,398.08c-8.68,2.64-17.34,3.36-24,2.1a26.62,26.62,0,0,1-3.75-1L235.47,371a26,26,0,0,0-3.91-1c-18.11-3.43-46.63,8.32-51.26,22.13l-22.43,67.32c-2,5.89-8.88,12.11-18.5,16.61L29.47,527.37C7.05,537.84,4.12,554.11,22.15,557.5a36.64,36.64,0,0,0,4.91.57l105.5,5.54a37.07,37.07,0,0,1,4.72.55c6.59,1.24,10.89,4.32,11.79,8.62l12.59,60c1,4.59,5.45,7.44,11.68,8.61,11.71,2.2,29.6-1.53,42.13-10.73l87-63.89c7.62-5.6,18.3-9.69,28.57-10.94l6.28-.77a364.46,364.46,0,0,1,111.53,3.58L516,571.25l-353.9,316.9c-10,9-7.75,18.14,5,20.5l156.79,29c12.75,2.36,31.2-3,41.12-12l208.82-188.1,40.58,7.63a17.11,17.11,0,0,1,12,24.66c-13.75,26.83-13.65,52.86,3.49,73.94,14.81,18.17,40.29,30.25,72.22,36.2,59.85,11.16,142.22.73,219.26-31.69,118-49.72,179.06-132.36,136.79-184.57-14.66-18.17-39.9-30.26-71.57-36.21-59.36-11.15-141.41-.73-218.61,31.7-1.88.79-3.76,1.59-5.62,2.4a112.59,112.59,0,0,1-65.69,7.26l-38.58-7.26L927.21,419.27c9.93-8.95,7.82-18.14-4.7-20.5l-24.93-4.69L867.44,335.5l89.66-6.43a46.39,46.39,0,0,0,24.22-8.94l182.36-134.34A46.43,46.43,0,0,0,1177.86,128ZM756.34,369.63c-10.4,1.27-21.64,5.79-28.71,12.12L600.73,495.39,439.08,465c-7.54-1.42-11-10.49-6-16.32l.14-.16h0a86.8,86.8,0,0,1,22.05-18.16L656.32,314.27l3.48,7.07a46.43,46.43,0,0,0,45,25.83l38.57-2.77Z"/><path d="M865.7,201.87a1,1,0,0,1-.67-.25.75.75,0,0,1-.29-.58c0-.47.34-.8,1-1,1.45-.43,2.68-.8,3.66-1.12a4.59,4.59,0,0,0,2.23-1.42,4.22,4.22,0,0,0,.73-2.67V170.73a2.57,2.57,0,0,0-.77-2,4.36,4.36,0,0,0-2-1,18.11,18.11,0,0,0-2.68-.42,2.94,2.94,0,0,1-1.12-.36.92.92,0,0,1-.55-.87,1.08,1.08,0,0,1,.52-.93,2.65,2.65,0,0,1,1.22-.42,35.89,35.89,0,0,0,5.76-1.12,14.53,14.53,0,0,0,5-2.8.43.43,0,0,1,.19-.1,1.15,1.15,0,0,1,.26,0,1.2,1.2,0,0,1,.68.19.56.56,0,0,1,.29.45c-.09.6-.16,1.27-.23,2s-.09,1.59-.09,2.57v29.54a3.43,3.43,0,0,0,.67,2.28,4.57,4.57,0,0,0,2.12,1.29c1,.32,2.25.68,3.83,1.06a2.62,2.62,0,0,1,.77.36.75.75,0,0,1,.33.67c0,.52-.3.77-.9.77-1.12,0-2.25,0-3.38-.09s-2.25-.12-3.35-.16-2.18-.07-3.25-.07-2.17,0-3.28.07-2.24.09-3.38.16S866.82,201.87,865.7,201.87Z"/><path d="M271.37,502.19l-1.54,0-2.67-.1-3.12-.13c-1.08,0-2.06-.06-3-.06s-2,0-3.38.06l-4.25.1-3.73.06-2,0a1.83,1.83,0,0,1-.74-.38c-.37-.26-.55-.5-.55-.71a.78.78,0,0,1,.2-.58l.45-.45,10.42-11.07a30.46,30.46,0,0,0,5.25-7.46,18.84,18.84,0,0,0,2-8.37,7,7,0,0,0-1.8-5.05,6,6,0,0,0-4.51-1.9,8.46,8.46,0,0,0-4.66,1.38A11.67,11.67,0,0,0,250.2,471a3.5,3.5,0,0,1-.64.7,1.28,1.28,0,0,1-.84.33c-.22,0-.42-.17-.61-.52a2.51,2.51,0,0,1-.29-1.29,4.65,4.65,0,0,1,1-2.28,14.72,14.72,0,0,1,2.71-2.93,16.06,16.06,0,0,1,4.12-2.51,12.89,12.89,0,0,1,5.14-1,10.55,10.55,0,0,1,5.54,1.39,9.18,9.18,0,0,1,3.54,3.79,12.09,12.09,0,0,1,1.22,5.5,12.27,12.27,0,0,1-.68,3.8,21.77,21.77,0,0,1-1.77,4,23.31,23.31,0,0,1-2.44,3.54c-.56.69-1.36,1.57-2.41,2.64s-2.17,2.2-3.35,3.38-2.31,2.29-3.38,3.34-1.94,1.92-2.61,2.61a5.62,5.62,0,0,0-1,1.16c0,.17.3.3.9.38.77.09,1.64.16,2.6.2s2,.06,3.13.06,2.3,0,3.44-.06,2.24-.11,3.31-.2a16.8,16.8,0,0,0,2.77-.38,3.76,3.76,0,0,0,1.77-1,8.47,8.47,0,0,0,1.45-2,8,8,0,0,1,.7-.9,1.29,1.29,0,0,1,1-.52.51.51,0,0,1,.52.32,1.21,1.21,0,0,1,.06.65c-.13.51-.34,1.2-.64,2.06s-.61,1.77-.91,2.73a27,27,0,0,0-.7,2.74,1.57,1.57,0,0,1-.61,1.19A1.73,1.73,0,0,1,271.37,502.19Z"/><path d="M557,654.59a12.55,12.55,0,0,1-5.76-1.57c-.75-.45-1.12-.89-1.12-1.32a2.89,2.89,0,0,1,.42-1.35,4.67,4.67,0,0,1,1.06-1.35,1.82,1.82,0,0,1,1.16-.58,2.16,2.16,0,0,1,1.15.32,7.33,7.33,0,0,1,1.1.84,16.8,16.8,0,0,0,2,1.64,4.87,4.87,0,0,0,2.87.8,8,8,0,0,0,4.21-1.19,9.37,9.37,0,0,0,4.47-8.14,14.2,14.2,0,0,0-.8-4.76,8.74,8.74,0,0,0-2.35-3.64,5.59,5.59,0,0,0-3.86-1.38,8,8,0,0,0-2.16.32,9,9,0,0,0-2,.84,1,1,0,0,1-.91-.07c-.34-.17-.47-.38-.38-.64a3.6,3.6,0,0,1,.87-1.67,4.17,4.17,0,0,1,1.32-1c.68-.34,1.48-.78,2.38-1.32a18.49,18.49,0,0,0,2.64-1.93,10.66,10.66,0,0,0,2.12-2.54,5.93,5.93,0,0,0,.84-3.09,6.3,6.3,0,0,0-1.61-4.28,5.26,5.26,0,0,0-4.12-1.83,7.34,7.34,0,0,0-3.73.83,8.62,8.62,0,0,0-2.32,1.93,20.06,20.06,0,0,0-1.42,1.93c-.34.56-.62.84-.83.84a1.14,1.14,0,0,1-.74-.42,1.29,1.29,0,0,1-.42-.93,5.1,5.1,0,0,1,.71-2.09A10.38,10.38,0,0,1,554,615a12.78,12.78,0,0,1,3.89-2.41,14.9,14.9,0,0,1,5.79-1,9.69,9.69,0,0,1,4.25,1,8.9,8.9,0,0,1,3.25,2.64,6.36,6.36,0,0,1,1.25,3.93,8.4,8.4,0,0,1-.74,3.25,10.63,10.63,0,0,1-2.38,3.41,14.48,14.48,0,0,1-4.34,2.86.23.23,0,0,0-.19.23c0,.1.08.16.25.16a10.45,10.45,0,0,1,5.28,1.32,10.22,10.22,0,0,1,3.7,3.57,9.66,9.66,0,0,1,1.38,5.15,13.35,13.35,0,0,1-1.54,6.46,15.31,15.31,0,0,1-4.18,4.89,19.29,19.29,0,0,1-5.89,3.09A21.49,21.49,0,0,1,557,654.59Z"/><path d="M831.68,769.13a1.82,1.82,0,0,1-.77-.23.71.71,0,0,1-.45-.67.68.68,0,0,1,.42-.61,2.55,2.55,0,0,1,.87-.29,7.76,7.76,0,0,0,3.79-1.32,3.23,3.23,0,0,0,1-2.54v-5.15q0-.33-.45-.45a2.59,2.59,0,0,0-.58-.13q-2.44,0-4.83.09l-4.92.2c-1.69.06-3.57.12-5.63.16a.83.83,0,0,1-.51-.19.54.54,0,0,1-.26-.45.52.52,0,0,1,.19-.33c.47-.6.83-1,1.06-1.28s.44-.5.61-.71.39-.52.65-.9l16.54-24.71a8,8,0,0,1,1.09-1.36,1.85,1.85,0,0,1,1.22-.64h1c.26,0,.36.15.29.45a2.86,2.86,0,0,1-.16.58l-16.6,24.65a1,1,0,0,0-.13.48c0,.15.11.23.32.23H835.8a.92.92,0,0,0,.49-.16.48.48,0,0,0,.22-.36v-9.14a4.35,4.35,0,0,1,.1-1.19c.06-.19.26-.37.61-.54a7.85,7.85,0,0,1,2.64-.84,16.52,16.52,0,0,1,2-.19c.6,0,1,.37,1.06,1.12a25,25,0,0,1,.16,3.32v7.72q0,.45.33.45.76.06,1.32.06h1.19l1.8,0c.6,0,1.24-.05,1.93-.1.47,0,.71.16.71.46a4,4,0,0,1-.26,1.25,5.69,5.69,0,0,1-.61,1.26c-.24.34-.4.51-.49.51l-1.51,0c-.53,0-1.08,0-1.64,0-.38,0-.73,0-1,0s-.58,0-.84.09a3.62,3.62,0,0,0-.54.2c-.2.08-.29.15-.29.19v5.21a3.28,3.28,0,0,0,.87,2.61,9.65,9.65,0,0,0,3.38,1.45,2.26,2.26,0,0,1,.86.32.8.8,0,0,1,.42.71.7.7,0,0,1-.32.51,1.19,1.19,0,0,1-.77.26c-1.12,0-2.09,0-2.93-.1s-1.63-.12-2.38-.16-1.62-.06-2.61-.06-1.93,0-2.7.06-1.57.1-2.38.16S832.8,769.13,831.68,769.13Z"/></g></svg>