<svg xmlns="http://www.w3.org/2000/svg" viewBox="0 0 1192 954"><defs><style>.cls-1{fill:#ff0;}.cls-2{fill:none;stroke:#000;stroke-miterlimit:10;stroke-width:5px;}</style></defs><title>map2</title><g id="Outline"><path class="cls-1" d="M486.46,360.5c-6.3-1.19-14.64-.68-23.91,2.14l-118.8,36.12c-8.69,2.64-17.37,3.36-24.07,2.09a25.47,25.47,0,0,1-3.76-1L236,371.6a27.28,27.28,0,0,0-3.91-1c-18.14-3.43-46.71,8.33-51.34,22.17l-22.47,67.42c-2,5.9-8.89,12.13-18.52,16.63L29.72,528.24C7.27,538.73,4.33,555,22.39,558.43a37.06,37.06,0,0,0,4.92.56L133,564.55a35.39,35.39,0,0,1,4.72.54c6.61,1.25,10.91,4.33,11.81,8.64l12.61,60.06c1,4.6,5.46,7.45,11.7,8.62,11.72,2.21,29.65-1.53,42.19-10.74l87.1-64c7.63-5.61,18.33-9.71,28.61-11L449,542.38c25.86-3.17,46.75-22.11,35.36-32.06l-51.49-45.1c-4.51-4-4.06-9.92,1.2-16l60-68.92c8.56-9.82,3.81-17.66-7.67-19.84Z"/><path class="cls-2" d="M1178.85,127.49l-39.58-81.1a46.5,46.5,0,0,0-45.14-26l-251,18.12a46.43,46.43,0,0,0-24,8.81L634.46,182a46.52,46.52,0,0,0-14.33,58.11l2.75,5.58L377.35,387.42,342.69,398c-8.69,2.64-17.37,3.36-24.07,2.09a25.47,25.47,0,0,1-3.76-1L235,370.8a26,26,0,0,0-3.91-1c-18.14-3.43-46.71,8.33-51.34,22.17l-22.47,67.42c-2,5.9-8.89,12.12-18.52,16.63L28.66,527.44c-22.45,10.49-25.39,26.79-7.33,30.18a37,37,0,0,0,4.92.57l105.67,5.55a37.07,37.07,0,0,1,4.72.55c6.61,1.25,10.91,4.33,11.81,8.64L161.06,633c1,4.61,5.46,7.46,11.7,8.63,11.72,2.2,29.65-1.53,42.19-10.75l87.1-64c7.63-5.61,18.33-9.71,28.61-11l6.29-.76a365,365,0,0,1,111.71,3.58L516,571.39,161.52,888.79c-10,9-7.76,18.17,5,20.53l157,29c12.77,2.36,31.25-3,41.19-12L573.89,738l40.65,7.64a17.15,17.15,0,0,1,12.05,24.7c-13.78,26.86-13.67,52.94,3.48,74,14.84,18.19,40.36,30.3,72.34,36.26,59.94,11.17,142.44.73,219.61-31.75,118.16-49.8,179.34-132.56,137-184.86-14.68-18.19-40-30.3-71.67-36.26-59.46-11.16-141.64-.73-219,31.75q-2.83,1.18-5.63,2.4a112.71,112.71,0,0,1-65.8,7.27l-38.64-7.26L927.81,419.17c9.94-9,7.83-18.16-4.71-20.52l-25-4.7-30.19-58.68,89.8-6.44A46.49,46.49,0,0,0,982,319.88l182.64-134.55A46.51,46.51,0,0,0,1178.85,127.49Zm-422.18,242c-10.42,1.28-21.68,5.81-28.76,12.15L600.82,495.41,438.91,465c-7.55-1.42-11-10.51-6-16.35l.15-.16h0a86.89,86.89,0,0,1,22.08-18.19L656.49,314,660,321.1A46.51,46.51,0,0,0,705,347l38.63-2.77Z"/><path d="M866.2,201.44a1,1,0,0,1-.68-.26.76.76,0,0,1-.29-.58c0-.47.35-.79,1-1,1.46-.43,2.69-.81,3.68-1.13a4.44,4.44,0,0,0,2.22-1.42,4.22,4.22,0,0,0,.74-2.67V170.25a2.59,2.59,0,0,0-.77-2,4.41,4.41,0,0,0-2-1,21.19,21.19,0,0,0-2.68-.42,3.1,3.1,0,0,1-1.12-.35.94.94,0,0,1-.55-.87,1.1,1.1,0,0,1,.51-.94,2.73,2.73,0,0,1,1.23-.42,34.7,34.7,0,0,0,5.77-1.13,14.33,14.33,0,0,0,5.06-2.8.48.48,0,0,1,.19-.1,1.2,1.2,0,0,1,.93.17.52.52,0,0,1,.29.45c-.08.6-.16,1.26-.22,2s-.1,1.6-.1,2.58V195a3.48,3.48,0,0,0,.68,2.29,4.63,4.63,0,0,0,2.13,1.28c1,.33,2.24.68,3.83,1.07a2.38,2.38,0,0,1,.77.35.77.77,0,0,1,.33.68c0,.51-.3.77-.91.77-1.11,0-2.24,0-3.38-.09s-2.26-.12-3.35-.17-2.18-.06-3.26-.06-2.17,0-3.28.06-2.25.1-3.39.17S867.32,201.44,866.2,201.44Z"/><path d="M270.94,502.22l-1.54,0c-.78,0-1.67-.05-2.68-.1l-3.13-.13c-1.07,0-2.06-.06-3-.06s-2,0-3.38.06-2.82.08-4.26.1-2.68,0-3.74.07l-2,0a1.82,1.82,0,0,1-.74-.39c-.36-.26-.55-.49-.55-.71a.78.78,0,0,1,.2-.58l.45-.45L257,488.94a30.51,30.51,0,0,0,5.25-7.47,18.76,18.76,0,0,0,2-8.38,7,7,0,0,0-1.81-5.06,5.94,5.94,0,0,0-4.51-1.9,8.52,8.52,0,0,0-4.67,1.38,11.79,11.79,0,0,0-3.51,3.45,3.35,3.35,0,0,1-.65.71,1.27,1.27,0,0,1-.84.32c-.21,0-.41-.17-.61-.51a2.65,2.65,0,0,1-.29-1.29,4.62,4.62,0,0,1,1-2.29A14.42,14.42,0,0,1,251,465a16.26,16.26,0,0,1,4.12-2.52,13,13,0,0,1,5.16-1,10.65,10.65,0,0,1,5.54,1.39,9.16,9.16,0,0,1,3.55,3.8,12.11,12.11,0,0,1,1.22,5.51,12.38,12.38,0,0,1-.68,3.81,22.08,22.08,0,0,1-1.77,4,24,24,0,0,1-2.45,3.55c-.56.68-1.36,1.57-2.42,2.64s-2.17,2.2-3.35,3.38-2.31,2.3-3.38,3.35-1.95,1.93-2.61,2.61a5.8,5.8,0,0,0-1,1.16q0,.27.9.39c.78.09,1.65.15,2.61.19s2,.07,3.13.07,2.31,0,3.45-.07,2.24-.1,3.32-.19a15.65,15.65,0,0,0,2.77-.39,3.88,3.88,0,0,0,1.77-1,8.28,8.28,0,0,0,1.45-2,8.28,8.28,0,0,1,.71-.9,1.27,1.27,0,0,1,1-.52.51.51,0,0,1,.51.32,1.13,1.13,0,0,1,.07.65c-.13.52-.35,1.2-.65,2.06s-.6,1.77-.9,2.74a27.16,27.16,0,0,0-.71,2.74,1.57,1.57,0,0,1-.61,1.19A1.59,1.59,0,0,1,270.94,502.22Z"/><path d="M557,654.87a12.4,12.4,0,0,1-5.77-1.58c-.75-.45-1.13-.89-1.13-1.32a3,3,0,0,1,.42-1.36,5,5,0,0,1,1.07-1.35,1.79,1.79,0,0,1,1.16-.58,2.16,2.16,0,0,1,1.15.32,9,9,0,0,1,1.1.84,14.51,14.51,0,0,0,2,1.64,4.8,4.8,0,0,0,2.87.81,8,8,0,0,0,4.22-1.19,9.41,9.41,0,0,0,3.22-3.32,9.32,9.32,0,0,0,1.26-4.84,14.06,14.06,0,0,0-.81-4.77,8.8,8.8,0,0,0-2.35-3.64,5.59,5.59,0,0,0-3.87-1.38,8,8,0,0,0-2.16.32,9.09,9.09,0,0,0-2,.84,1,1,0,0,1-.9-.07c-.35-.17-.47-.38-.39-.64a3.64,3.64,0,0,1,.87-1.68,4.2,4.2,0,0,1,1.32-1c.69-.35,1.49-.79,2.39-1.33a17.75,17.75,0,0,0,2.64-1.93,10.47,10.47,0,0,0,2.13-2.54,6,6,0,0,0,.84-3.1,6.26,6.26,0,0,0-1.62-4.28,5.2,5.2,0,0,0-4.12-1.84,7.3,7.3,0,0,0-3.74.84,8.59,8.59,0,0,0-2.32,1.93,20.06,20.06,0,0,0-1.42,1.93c-.34.56-.62.84-.83.84a1.16,1.16,0,0,1-.75-.42,1.28,1.28,0,0,1-.41-.93,5.28,5.28,0,0,1,.7-2.1,10.64,10.64,0,0,1,2.23-2.8,13,13,0,0,1,3.9-2.42,15.11,15.11,0,0,1,5.8-1,9.7,9.7,0,0,1,4.25,1,8.83,8.83,0,0,1,3.26,2.64,6.42,6.42,0,0,1,1.25,3.93,8.41,8.41,0,0,1-.74,3.26,10.68,10.68,0,0,1-2.38,3.41,14.49,14.49,0,0,1-4.35,2.87c-.13.05-.2.12-.2.23s.09.16.26.16a10.52,10.52,0,0,1,5.29,1.32,10.24,10.24,0,0,1,3.7,3.58,9.58,9.58,0,0,1,1.39,5.15,13.43,13.43,0,0,1-1.55,6.48,15.25,15.25,0,0,1-4.19,4.9,19.67,19.67,0,0,1-5.9,3.09A21.49,21.49,0,0,1,557,654.87Z"/><path d="M832.13,769.58a1.82,1.82,0,0,1-.78-.23.71.71,0,0,1-.45-.67.68.68,0,0,1,.42-.61,2.55,2.55,0,0,1,.87-.29,7.79,7.79,0,0,0,3.8-1.33,3.21,3.21,0,0,0,1-2.54v-5.16q0-.32-.45-.45a3.38,3.38,0,0,0-.58-.13c-1.63,0-3.24,0-4.83.1l-4.93.19c-1.7.07-3.58.12-5.64.16a.84.84,0,0,1-.52-.19.57.57,0,0,1-.26-.45c0-.09.07-.19.2-.32.47-.61.82-1,1.06-1.29s.44-.5.61-.71.39-.52.65-.9L838.83,730a7.72,7.72,0,0,1,1.1-1.36,1.79,1.79,0,0,1,1.22-.64h1c.26,0,.36.15.29.45a3.09,3.09,0,0,1-.16.58l-16.63,24.68a1.09,1.09,0,0,0-.13.49c0,.15.11.22.32.22h10.38a.84.84,0,0,0,.49-.16.42.42,0,0,0,.22-.35v-9.15a4.43,4.43,0,0,1,.1-1.2,1.11,1.11,0,0,1,.61-.54,8,8,0,0,1,2.64-.84,17.48,17.48,0,0,1,2-.2c.6,0,1,.38,1.06,1.13a24.6,24.6,0,0,1,.17,3.32v7.74c0,.3.1.45.32.45q.76.06,1.32.06h1.19l1.81,0c.6,0,1.24,0,1.93-.1.47,0,.71.15.71.45a4,4,0,0,1-.26,1.26,5.48,5.48,0,0,1-.61,1.26q-.36.51-.48.51L848,758c-.54,0-1.09,0-1.64,0-.39,0-.73,0-1,0s-.58.06-.84.1a3.61,3.61,0,0,0-.55.19c-.19.09-.29.15-.29.19v5.22a3.28,3.28,0,0,0,.87,2.61,9.71,9.71,0,0,0,3.38,1.46,2.25,2.25,0,0,1,.87.32.8.8,0,0,1,.42.71.7.7,0,0,1-.32.51,1.19,1.19,0,0,1-.77.26c-1.12,0-2.1,0-2.94-.1l-2.38-.16q-1.12-.06-2.61-.06c-1,0-1.93,0-2.71.06l-2.38.16C834.21,769.55,833.24,769.58,832.13,769.58Z"/></g></svg>